ffmpeg started on 2025-07-16 at 15:52:33
Report written to "D:\Convert\FFMetrics\reports\ssim_report-6.txt"
Log level: 32
Command line:
ffmpeg -hide_banner -nostdin -i "G:\\\xc0\xed\xe8\xec\xe5\\Shiza\\\xcb\xe5\xe3\xe5\xed\xe4\xe0 \xee \xc3\xf0\xe0\xed\xea\xf0\xe5\xf1\xf2\xe5\\[SHIZA Project] Grancrest Senki TV [04] [nDrOiDze & Lianna]_HEVC.mkv" -i "G:\\\xc0\xed\xe8\xec\xe5\\Shiza\\\xcb\xe5\xe3\xe5\xed\xe4\xe0 \xee \xc3\xf0\xe0\xed\xea\xf0\xe5\xf1\xf2\xe5\\[SHIZA Project] Grancrest Senki TV [04] [nDrOiDze & Lianna].mkv" -lavfi "[0:v]settb=AVTB,setpts=PTS-STARTPTS,format=pix_fmts=yuv420p10,fps=24000/1001,scale=1280:720:flags=bicubic[main];[1:v]settb=AVTB,setpts=PTS-STARTPTS,format=pix_fmts=yuv420p,fps=24000/1001,scale=1280:720:flags=bicubic[ref];[main][ref]ssim=eof_action=endall:stats_file='D\\:/Convert/FFMetrics/logs/ssim_logfile-6.txt'" -f null -
Input #0, matroska,webm, from 'G:\Аниме\Shiza\Легенда о Гранкресте\[SHIZA Project] Grancrest Senki TV [04] [nDrOiDze & Lianna]_HEVC.mkv':
  Metadata:
    ENCODER         : Lavf61.7.100
  Duration: 00:23:41.99, start: -0.021000, bitrate: 815 kb/s
  Stream #0:0(jpn): Video: hevc (Main 10), yuv420p10le(tv, bt709, progressive), 1280x720 [SAR 1:1 DAR 16:9], 23.98 fps, 23.98 tbr, 1k tbn (default)
      Metadata:
        title           : [SHIZA Project] Grancrest Senki TV [WEBRip]
        ENCODER         : Lavc61.19.100 libx265
        BPS             : 617555
        DURATION        : 00:23:40.168708333
        NUMBER_OF_FRAMES: 34050
        NUMBER_OF_BYTES : 109629085
        _STATISTICS_WRITING_APP: mkvpropedit v66.0.0 ('Josie') 64-bit
        _STATISTICS_WRITING_DATE_UTC: 2025-07-14 08:18:27
        _STATISTICS_TAGS: BPS DURATION NUMBER_OF_FRAMES NUMBER_OF_BYTES
  Stream #0:1(rus): Audio: aac (LC), 48000 Hz, stereo, fltp (default)
      Metadata:
        title           : nDrOiDze & Lianna
        ENCODER         : Lavc61.19.100 aac
        BPS             : 194721
        DURATION        : 00:23:41.973000000
        NUMBER_OF_FRAMES: 66656
        NUMBER_OF_BYTES : 34611096
        _STATISTICS_WRITING_APP: mkvpropedit v66.0.0 ('Josie') 64-bit
        _STATISTICS_WRITING_DATE_UTC: 2025-07-14 08:18:27
        _STATISTICS_TAGS: BPS DURATION NUMBER_OF_FRAMES NUMBER_OF_BYTES
Input #1, matroska,webm, from 'G:\Аниме\Shiza\Легенда о Гранкресте\[SHIZA Project] Grancrest Senki TV [04] [nDrOiDze & Lianna].mkv':
  Metadata:
    encoder         : libebml v1.3.4 + libmatroska v1.4.5
    creation_time   : 2018-01-29T20:30:05.000000Z
  Duration: 00:23:41.97, start: 0.000000, bitrate: 2850 kb/s
  Stream #1:0(jpn): Video: h264 (High), yuv420p(progressive), 1280x720 [SAR 1:1 DAR 16:9], 23.98 fps, 23.98 tbr, 1k tbn (default)
      Metadata:
        title           : [SHIZA Project] Grancrest Senki TV [WEBRip]
        BPS             : 2561197
        BPS-eng         : 2561197
        DURATION        : 00:23:40.170000000
        DURATION-eng    : 00:23:40.170000000
        NUMBER_OF_FRAMES: 34050
        NUMBER_OF_FRAMES-eng: 34050
        NUMBER_OF_BYTES : 454666971
        NUMBER_OF_BYTES-eng: 454666971
        _STATISTICS_WRITING_APP: mkvmerge v10.0.0 ('To Drown In You') 64bit
        _STATISTICS_WRITING_APP-eng: mkvmerge v10.0.0 ('To Drown In You') 64bit
        _STATISTICS_WRITING_DATE_UTC: 2018-01-29 20:30:05
        _STATISTICS_WRITING_DATE_UTC-eng: 2018-01-29 20:30:05
        _STATISTICS_TAGS: BPS DURATION NUMBER_OF_FRAMES NUMBER_OF_BYTES
        _STATISTICS_TAGS-eng: BPS DURATION NUMBER_OF_FRAMES NUMBER_OF_BYTES
  Stream #1:1(rus): Audio: aac (LC), 48000 Hz, stereo, fltp (default)
      Metadata:
        title           : nDrOiDze & Lianna
        BPS             : 290428
        BPS-eng         : 290428
        DURATION        : 00:23:41.973000000
        DURATION-eng    : 00:23:41.973000000
        NUMBER_OF_FRAMES: 66655
        NUMBER_OF_FRAMES-eng: 66655
        NUMBER_OF_BYTES : 51622710
        NUMBER_OF_BYTES-eng: 51622710
        _STATISTICS_WRITING_APP: mkvmerge v10.0.0 ('To Drown In You') 64bit
        _STATISTICS_WRITING_APP-eng: mkvmerge v10.0.0 ('To Drown In You') 64bit
        _STATISTICS_WRITING_DATE_UTC: 2018-01-29 20:30:05
        _STATISTICS_WRITING_DATE_UTC-eng: 2018-01-29 20:30:05
        _STATISTICS_TAGS: BPS DURATION NUMBER_OF_FRAMES NUMBER_OF_BYTES
        _STATISTICS_TAGS-eng: BPS DURATION NUMBER_OF_FRAMES NUMBER_OF_BYTES
Stream mapping:
  Stream #0:0 (hevc) -> settb:default
  Stream #1:0 (h264) -> settb:default
  ssim:default -> Stream #0:0 (wrapped_avframe)
  Stream #0:1 -> #0:1 (aac (native) -> pcm_s16le (native))
[swscaler @ 0000017358bedb00] No accelerated colorspace conversion found from yuv420p to bgr48le.
[swscaler @ 0000017358d2b240] No accelerated colorspace conversion found from yuv420p to bgr48le.
[swscaler @ 0000017358e9fb00] No accelerated colorspace conversion found from yuv420p to bgr48le.
[swscaler @ 0000017358fd0780] No accelerated colorspace conversion found from yuv420p to bgr48le.
[swscaler @ 0000017359138dc0] No accelerated colorspace conversion found from yuv420p to bgr48le.
[swscaler @ 000001735921bb80] No accelerated colorspace conversion found from yuv420p to bgr48le.
[swscaler @ 000001735939d740] No accelerated colorspace conversion found from yuv420p to bgr48le.
[swscaler @ 0000017359479b40] No accelerated colorspace conversion found from yuv420p to bgr48le.
[swscaler @ 0000017359592780] No accelerated colorspace conversion found from yuv420p to bgr48le.
[swscaler @ 0000017359700c00] No accelerated colorspace conversion found from yuv420p to bgr48le.
[swscaler @ 00000173598137c0] No accelerated colorspace conversion found from yuv420p to bgr48le.
[swscaler @ 0000017359865ec0] No accelerated colorspace conversion found from yuv420p to bgr48le.
[swscaler @ 00000173598c8cc0] No accelerated colorspace conversion found from yuv420p to bgr48le.
[swscaler @ 000001735996c040] No accelerated colorspace conversion found from yuv420p to bgr48le.
[swscaler @ 00000173599c7040] No accelerated colorspace conversion found from yuv420p to bgr48le.
[swscaler @ 000001735f0100c0] No accelerated colorspace conversion found from yuv420p to bgr48le.
Output #0, null, to 'pipe:':
  Metadata:
    encoder         : Lavf61.7.100
  Stream #0:0: Video: wrapped_avframe, yuv420p10le(tv, bt709, progressive), 1280x720 [SAR 1:1 DAR 16:9], q=2-31, 200 kb/s, 23.98 fps, 23.98 tbn
      Metadata:
        encoder         : Lavc61.19.100 wrapped_avframe
  Stream #0:1(rus): Audio: pcm_s16le, 48000 Hz, stereo, s16, 1536 kb/s (default)
      Metadata:
        title           : nDrOiDze & Lianna
        _STATISTICS_TAGS: BPS DURATION NUMBER_OF_FRAMES NUMBER_OF_BYTES
        BPS             : 194721
        DURATION        : 00:23:41.973000000
        NUMBER_OF_FRAMES: 66656
        NUMBER_OF_BYTES : 34611096
        _STATISTICS_WRITING_APP: mkvpropedit v66.0.0 ('Josie') 64-bit
        _STATISTICS_WRITING_DATE_UTC: 2025-07-14 08:18:27
        encoder         : Lavc61.19.100 pcm_s16le
frame=   86 fps=0.0 q=-0.0 size=N/A time=00:00:03.58 bitrate=N/A speed=6.86x    frame=  178 fps=172 q=-0.0 size=N/A time=00:00:07.42 bitrate=N/A speed=7.19x    frame=  288 fps=185 q=-0.0 size=N/A time=00:00:12.01 bitrate=N/A speed=7.72x    frame=  382 fps=185 q=-0.0 size=N/A time=00:00:15.93 bitrate=N/A speed=7.73x    frame=  485 fps=188 q=-0.0 size=N/A time=00:00:20.22 bitrate=N/A speed=7.83x    frame=  585 fps=189 q=-0.0 size=N/A time=00:00:24.39 bitrate=N/A speed= 7.9x    frame=  689 fps=191 q=-0.0 size=N/A time=00:00:28.73 bitrate=N/A speed=7.95x    frame=  786 fps=191 q=-0.0 size=N/A time=00:00:32.78 bitrate=N/A speed=7.95x    frame=  889 fps=191 q=-0.0 size=N/A time=00:00:37.07 bitrate=N/A speed=7.98x    frame=  981 fps=190 q=-0.0 size=N/A time=00:00:40.91 bitrate=N/A speed=7.94x    frame= 1088 fps=192 q=-0.0 size=N/A time=00:00:45.37 bitrate=N/A speed=7.99x    frame= 1181 fps=191 q=-0.0 size=N/A time=00:00:49.25 bitrate=N/A speed=7.96x    frame= 1291 fps=192 q=-0.0 size=N/A time=00:00:53.84 bitrate=N/A speed=8.03x    frame= 1389 fps=193 q=-0.0 size=N/A time=00:00:57.93 bitrate=N/A speed=8.03x    frame= 1493 fps=193 q=-0.0 size=N/A time=00:01:02.27 bitrate=N/A speed=8.04x    frame= 1585 fps=192 q=-0.0 size=N/A time=00:01:06.10 bitrate=N/A speed=8.02x    frame= 1690 fps=193 q=-0.0 size=N/A time=00:01:10.48 bitrate=N/A speed=8.04x    frame= 1790 fps=193 q=-0.0 size=N/A time=00:01:14.65 bitrate=N/A speed=8.05x    frame= 1892 fps=193 q=-0.0 size=N/A time=00:01:18.91 bitrate=N/A speed=8.05x    frame= 1991 fps=193 q=-0.0 size=N/A time=00:01:23.04 bitrate=N/A speed=8.06x    frame= 2090 fps=193 q=-0.0 size=N/A time=00:01:27.17 bitrate=N/A speed=8.05x    frame= 2190 fps=193 q=-0.0 size=N/A time=00:01:31.34 bitrate=N/A speed=8.05x    frame= 2293 fps=193 q=-0.0 size=N/A time=00:01:35.63 bitrate=N/A speed=8.06x    frame= 2387 fps=193 q=-0.0 size=N/A time=00:01:39.55 bitrate=N/A speed=8.05x    frame= 2494 fps=193 q=-0.0 size=N/A time=00:01:44.02 bitrate=N/A speed=8.07x    frame= 2589 fps=193 q=-0.0 size=N/A time=00:01:47.98 bitrate=N/A speed=8.05x    frame= 2690 fps=193 q=-0.0 size=N/A time=00:01:52.19 bitrate=N/A speed=8.06x    frame= 2790 fps=193 q=-0.0 size=N/A time=00:01:56.36 bitrate=N/A speed=8.06x    frame= 2884 fps=193 q=-0.0 size=N/A time=00:02:00.28 bitrate=N/A speed=8.04x    frame= 2975 fps=192 q=-0.0 size=N/A time=00:02:04.08 bitrate=N/A speed=8.02x    frame= 3084 fps=193 q=-0.0 size=N/A time=00:02:08.62 bitrate=N/A speed=8.05x    frame= 3186 fps=193 q=-0.0 size=N/A time=00:02:12.88 bitrate=N/A speed=8.05x    frame= 3284 fps=193 q=-0.0 size=N/A time=00:02:16.97 bitrate=N/A speed=8.05x    frame= 3383 fps=193 q=-0.0 size=N/A time=00:02:21.09 bitrate=N/A speed=8.04x    frame= 3481 fps=193 q=-0.0 size=N/A time=00:02:25.18 bitrate=N/A speed=8.04x    frame= 3580 fps=193 q=-0.0 size=N/A time=00:02:29.31 bitrate=N/A speed=8.04x    frame= 3681 fps=193 q=-0.0 size=N/A time=00:02:33.52 bitrate=N/A speed=8.05x    frame= 3778 fps=193 q=-0.0 size=N/A time=00:02:37.57 bitrate=N/A speed=8.04x    frame= 3880 fps=193 q=-0.0 size=N/A time=00:02:41.82 bitrate=N/A speed=8.05x    frame= 3980 fps=193 q=-0.0 size=N/A time=00:02:45.99 bitrate=N/A speed=8.05x    frame= 4076 fps=193 q=-0.0 size=N/A time=00:02:50.00 bitrate=N/A speed=8.04x    frame= 4179 fps=193 q=-0.0 size=N/A time=00:02:54.29 bitrate=N/A speed=8.05x    frame= 4276 fps=193 q=-0.0 size=N/A time=00:02:58.34 bitrate=N/A speed=8.04x    frame= 4373 fps=193 q=-0.0 size=N/A time=00:03:02.39 bitrate=N/A speed=8.04x    frame= 4473 fps=193 q=-0.0 size=N/A time=00:03:06.56 bitrate=N/A speed=8.04x    frame= 4564 fps=192 q=-0.0 size=N/A time=00:03:10.35 bitrate=N/A speed=8.02x    frame= 4672 fps=193 q=-0.0 size=N/A time=00:03:14.86 bitrate=N/A speed=8.04x    frame= 4771 fps=193 q=-0.0 size=N/A time=00:03:18.99 bitrate=N/A speed=8.04x    frame= 4876 fps=193 q=-0.0 size=N/A time=00:03:23.36 bitrate=N/A speed=8.05x    frame= 4974 fps=193 q=-0.0 size=N/A time=00:03:27.45 bitrate=N/A speed=8.04x    frame= 5065 fps=193 q=-0.0 size=N/A time=00:03:31.25 bitrate=N/A speed=8.03x    frame= 5181 fps=193 q=-0.0 size=N/A time=00:03:36.09 bitrate=N/A speed=8.06x    frame= 5280 fps=193 q=-0.0 size=N/A time=00:03:40.22 bitrate=N/A speed=8.06x    frame= 5383 fps=193 q=-0.0 size=N/A time=00:03:44.51 bitrate=N/A speed=8.06x    frame= 5486 fps=193 q=-0.0 size=N/A time=00:03:48.81 bitrate=N/A speed=8.07x    frame= 5580 fps=193 q=-0.0 size=N/A time=00:03:52.73 bitrate=N/A speed=8.06x    frame= 5689 fps=194 q=-0.0 size=N/A time=00:03:57.27 bitrate=N/A speed=8.07x    frame= 5788 fps=194 q=-0.0 size=N/A time=00:04:01.40 bitrate=N/A speed=8.07x    frame= 5888 fps=194 q=-0.0 size=N/A time=00:04:05.57 bitrate=N/A speed=8.07x    frame= 5988 fps=194 q=-0.0 size=N/A time=00:04:09.74 bitrate=N/A speed=8.07x    frame= 6094 fps=194 q=-0.0 size=N/A time=00:04:14.17 bitrate=N/A speed=8.08x    frame= 6194 fps=194 q=-0.0 size=N/A time=00:04:18.34 bitrate=N/A speed=8.08x    frame= 6296 fps=194 q=-0.0 size=N/A time=00:04:22.59 bitrate=N/A speed=8.08x    frame= 6395 fps=194 q=-0.0 size=N/A time=00:04:26.72 bitrate=N/A speed=8.08x    frame= 6496 fps=194 q=-0.0 size=N/A time=00:04:30.93 bitrate=N/A speed=8.08x    frame= 6596 fps=194 q=-0.0 size=N/A time=00:04:35.10 bitrate=N/A speed=8.09x    frame= 6697 fps=194 q=-0.0 size=N/A time=00:04:39.32 bitrate=N/A speed=8.08x    frame= 6801 fps=194 q=-0.0 size=N/A time=00:04:43.65 bitrate=N/A speed=8.09x    frame= 6902 fps=194 q=-0.0 size=N/A time=00:04:47.87 bitrate=N/A speed=8.09x    frame= 6998 fps=194 q=-0.0 size=N/A time=00:04:51.87 bitrate=N/A speed=8.09x    frame= 7100 fps=194 q=-0.0 size=N/A time=00:04:56.12 bitrate=N/A speed=8.09x    frame= 7198 fps=194 q=-0.0 size=N/A time=00:05:00.21 bitrate=N/A speed=8.09x    frame= 7301 fps=194 q=-0.0 size=N/A time=00:05:04.51 bitrate=N/A speed=8.09x    frame= 7395 fps=194 q=-0.0 size=N/A time=00:05:08.43 bitrate=N/A speed=8.08x    frame= 7502 fps=194 q=-0.0 size=N/A time=00:05:12.89 bitrate=N/A speed=8.09x    frame= 7601 fps=194 q=-0.0 size=N/A time=00:05:17.02 bitrate=N/A speed=8.09x    frame= 7707 fps=194 q=-0.0 size=N/A time=00:05:21.44 bitrate=N/A speed= 8.1x    frame= 7809 fps=194 q=-0.0 size=N/A time=00:05:25.70 bitrate=N/A speed= 8.1x    frame= 7906 fps=194 q=-0.0 size=N/A time=00:05:29.74 bitrate=N/A speed= 8.1x    frame= 8008 fps=194 q=-0.0 size=N/A time=00:05:34.00 bitrate=N/A speed= 8.1x    frame= 8104 fps=194 q=-0.0 size=N/A time=00:05:38.00 bitrate=N/A speed=8.09x    frame= 8205 fps=194 q=-0.0 size=N/A time=00:05:42.21 bitrate=N/A speed=8.09x    frame= 8295 fps=194 q=-0.0 size=N/A time=00:05:45.97 bitrate=N/A speed=8.08x    frame= 8404 fps=194 q=-0.0 size=N/A time=00:05:50.51 bitrate=N/A speed=8.09x    frame= 8501 fps=194 q=-0.0 size=N/A time=00:05:54.56 bitrate=N/A speed=8.09x    frame= 8594 fps=194 q=-0.0 size=N/A time=00:05:58.44 bitrate=N/A speed=8.08x    frame= 8690 fps=194 q=-0.0 size=N/A time=00:06:02.44 bitrate=N/A speed=8.08x    frame= 8800 fps=194 q=-0.0 size=N/A time=00:06:07.03 bitrate=N/A speed=8.09x    frame= 8902 fps=194 q=-0.0 size=N/A time=00:06:11.28 bitrate=N/A speed=8.09x    frame= 8995 fps=194 q=-0.0 size=N/A time=00:06:15.16 bitrate=N/A speed=8.08x    frame= 9101 fps=194 q=-0.0 size=N/A time=00:06:19.58 bitrate=N/A speed=8.09x    frame= 9198 fps=194 q=-0.0 size=N/A time=00:06:23.63 bitrate=N/A speed=8.09x    frame= 9300 fps=194 q=-0.0 size=N/A time=00:06:27.88 bitrate=N/A speed=8.09x    frame= 9402 fps=194 q=-0.0 size=N/A time=00:06:32.14 bitrate=N/A speed=8.09x    frame= 9501 fps=194 q=-0.0 size=N/A time=00:06:36.27 bitrate=N/A speed=8.09x    frame= 9599 fps=194 q=-0.0 size=N/A time=00:06:40.35 bitrate=N/A speed=8.09x    frame= 9702 fps=194 q=-0.0 size=N/A time=00:06:44.65 bitrate=N/A speed=8.09x    frame= 9802 fps=194 q=-0.0 size=N/A time=00:06:48.82 bitrate=N/A speed=8.09x    frame= 9901 fps=194 q=-0.0 size=N/A time=00:06:52.95 bitrate=N/A speed=8.08x    frame=10002 fps=194 q=-0.0 size=N/A time=00:06:57.16 bitrate=N/A speed=8.08x    frame=10104 fps=194 q=-0.0 size=N/A time=00:07:01.42 bitrate=N/A speed=8.09x    frame=10192 fps=194 q=-0.0 size=N/A time=00:07:05.09 bitrate=N/A speed=8.08x    frame=10299 fps=194 q=-0.0 size=N/A time=00:07:09.55 bitrate=N/A speed=8.08x    frame=10387 fps=194 q=-0.0 size=N/A time=00:07:13.22 bitrate=N/A speed=8.07x    frame=10499 fps=194 q=-0.0 size=N/A time=00:07:17.89 bitrate=N/A speed=8.08x    frame=10594 fps=194 q=-0.0 size=N/A time=00:07:21.85 bitrate=N/A speed=8.08x    frame=10699 fps=194 q=-0.0 size=N/A time=00:07:26.23 bitrate=N/A speed=8.08x    frame=10795 fps=194 q=-0.0 size=N/A time=00:07:30.24 bitrate=N/A speed=8.08x    frame=10902 fps=194 q=-0.0 size=N/A time=00:07:34.70 bitrate=N/A speed=8.09x    frame=10997 fps=194 q=-0.0 size=N/A time=00:07:38.66 bitrate=N/A speed=8.08x    frame=11106 fps=194 q=-0.0 size=N/A time=00:07:43.21 bitrate=N/A speed=8.09x    frame=11208 fps=194 q=-0.0 size=N/A time=00:07:47.46 bitrate=N/A speed=8.09x    frame=11302 fps=194 q=-0.0 size=N/A time=00:07:51.38 bitrate=N/A speed=8.09x    frame=11405 fps=194 q=-0.0 size=N/A time=00:07:55.68 bitrate=N/A speed=8.09x    frame=11495 fps=194 q=-0.0 size=N/A time=00:07:59.43 bitrate=N/A speed=8.08x    frame=11601 fps=194 q=-0.0 size=N/A time=00:08:03.85 bitrate=N/A speed=8.09x    frame=11695 fps=194 q=-0.0 size=N/A time=00:08:07.77 bitrate=N/A speed=8.08x    frame=11790 fps=194 q=-0.0 size=N/A time=00:08:11.74 bitrate=N/A speed=8.08x    frame=11883 fps=194 q=-0.0 size=N/A time=00:08:15.62 bitrate=N/A speed=8.07x    frame=11983 fps=194 q=-0.0 size=N/A time=00:08:19.79 bitrate=N/A speed=8.07x    frame=12075 fps=193 q=-0.0 size=N/A time=00:08:23.62 bitrate=N/A speed=8.07x    frame=12173 fps=193 q=-0.0 size=N/A time=00:08:27.71 bitrate=N/A speed=8.07x    frame=12269 fps=193 q=-0.0 size=N/A time=00:08:31.71 bitrate=N/A speed=8.06x    frame=12369 fps=193 q=-0.0 size=N/A time=00:08:35.89 bitrate=N/A speed=8.06x    frame=12469 fps=193 q=-0.0 size=N/A time=00:08:40.06 bitrate=N/A speed=8.06x    frame=12569 fps=193 q=-0.0 size=N/A time=00:08:44.23 bitrate=N/A speed=8.07x    frame=12664 fps=193 q=-0.0 size=N/A time=00:08:48.19 bitrate=N/A speed=8.06x    frame=12762 fps=193 q=-0.0 size=N/A time=00:08:52.28 bitrate=N/A speed=8.06x    frame=12870 fps=193 q=-0.0 size=N/A time=00:08:56.78 bitrate=N/A speed=8.07x    frame=12967 fps=193 q=-0.0 size=N/A time=00:09:00.83 bitrate=N/A speed=8.06x    frame=13069 fps=193 q=-0.0 size=N/A time=00:09:05.08 bitrate=N/A speed=8.07x    frame=13163 fps=193 q=-0.0 size=N/A time=00:09:09.00 bitrate=N/A speed=8.06x    frame=13271 fps=193 q=-0.0 size=N/A time=00:09:13.51 bitrate=N/A speed=8.07x    frame=13372 fps=193 q=-0.0 size=N/A time=00:09:17.72 bitrate=N/A speed=8.07x    frame=13474 fps=193 q=-0.0 size=N/A time=00:09:21.97 bitrate=N/A speed=8.07x    frame=13576 fps=194 q=-0.0 size=N/A time=00:09:26.23 bitrate=N/A speed=8.07x    frame=13671 fps=193 q=-0.0 size=N/A time=00:09:30.19 bitrate=N/A speed=8.07x    frame=13769 fps=193 q=-0.0 size=N/A time=00:09:34.28 bitrate=N/A speed=8.07x    frame=13869 fps=193 q=-0.0 size=N/A time=00:09:38.45 bitrate=N/A speed=8.07x    frame=13968 fps=193 q=-0.0 size=N/A time=00:09:42.58 bitrate=N/A speed=8.07x    frame=14069 fps=193 q=-0.0 size=N/A time=00:09:46.79 bitrate=N/A speed=8.07x    frame=14167 fps=193 q=-0.0 size=N/A time=00:09:50.88 bitrate=N/A speed=8.07x    frame=14265 fps=193 q=-0.0 size=N/A time=00:09:54.96 bitrate=N/A speed=8.07x    frame=14367 fps=193 q=-0.0 size=N/A time=00:09:59.22 bitrate=N/A speed=8.07x    frame=14469 fps=193 q=-0.0 size=N/A time=00:10:03.47 bitrate=N/A speed=8.07x    frame=14563 fps=193 q=-0.0 size=N/A time=00:10:07.39 bitrate=N/A speed=8.07x    frame=14670 fps=193 q=-0.0 size=N/A time=00:10:11.86 bitrate=N/A speed=8.07x    frame=14771 fps=193 q=-0.0 size=N/A time=00:10:16.07 bitrate=N/A speed=8.07x    frame=14870 fps=193 q=-0.0 size=N/A time=00:10:20.20 bitrate=N/A speed=8.07x    frame=14966 fps=193 q=-0.0 size=N/A time=00:10:24.20 bitrate=N/A speed=8.07x    frame=15070 fps=193 q=-0.0 size=N/A time=00:10:28.54 bitrate=N/A speed=8.07x    frame=15166 fps=193 q=-0.0 size=N/A time=00:10:32.54 bitrate=N/A speed=8.07x    frame=15267 fps=193 q=-0.0 size=N/A time=00:10:36.76 bitrate=N/A speed=8.07x    frame=15367 fps=193 q=-0.0 size=N/A time=00:10:40.93 bitrate=N/A speed=8.07x    frame=15462 fps=193 q=-0.0 size=N/A time=00:10:44.89 bitrate=N/A speed=8.06x    frame=15564 fps=193 q=-0.0 size=N/A time=00:10:49.14 bitrate=N/A speed=8.07x    frame=15666 fps=193 q=-0.0 size=N/A time=00:10:53.40 bitrate=N/A speed=8.07x    frame=15763 fps=193 q=-0.0 size=N/A time=00:10:57.44 bitrate=N/A speed=8.07x    frame=15867 fps=193 q=-0.0 size=N/A time=00:11:01.78 bitrate=N/A speed=8.07x    frame=15960 fps=193 q=-0.0 size=N/A time=00:11:05.66 bitrate=N/A speed=8.07x    frame=16062 fps=193 q=-0.0 size=N/A time=00:11:09.91 bitrate=N/A speed=8.07x    frame=16158 fps=193 q=-0.0 size=N/A time=00:11:13.92 bitrate=N/A speed=8.06x    frame=16259 fps=193 q=-0.0 size=N/A time=00:11:18.13 bitrate=N/A speed=8.06x    frame=16342 fps=193 q=-0.0 size=N/A time=00:11:21.59 bitrate=N/A speed=8.06x    frame=16452 fps=193 q=-0.0 size=N/A time=00:11:26.18 bitrate=N/A speed=8.06x    frame=16551 fps=193 q=-0.0 size=N/A time=00:11:30.31 bitrate=N/A speed=8.06x    frame=16640 fps=193 q=-0.0 size=N/A time=00:11:34.02 bitrate=N/A speed=8.06x    frame=16749 fps=193 q=-0.0 size=N/A time=00:11:38.57 bitrate=N/A speed=8.06x    frame=16849 fps=193 q=-0.0 size=N/A time=00:11:42.74 bitrate=N/A speed=8.06x    frame=16945 fps=193 q=-0.0 size=N/A time=00:11:46.74 bitrate=N/A speed=8.06x    frame=17042 fps=193 q=-0.0 size=N/A time=00:11:50.79 bitrate=N/A speed=8.06x    frame=17138 fps=193 q=-0.0 size=N/A time=00:11:54.79 bitrate=N/A speed=8.06x    frame=17242 fps=193 q=-0.0 size=N/A time=00:11:59.13 bitrate=N/A speed=8.06x    frame=17337 fps=193 q=-0.0 size=N/A time=00:12:03.09 bitrate=N/A speed=8.06x    frame=17436 fps=193 q=-0.0 size=N/A time=00:12:07.22 bitrate=N/A speed=8.06x    frame=17525 fps=193 q=-0.0 size=N/A time=00:12:10.93 bitrate=N/A speed=8.05x    frame=17632 fps=193 q=-0.0 size=N/A time=00:12:15.40 bitrate=N/A speed=8.05x    frame=17723 fps=193 q=-0.0 size=N/A time=00:12:19.19 bitrate=N/A speed=8.05x    frame=17813 fps=193 q=-0.0 size=N/A time=00:12:22.95 bitrate=N/A speed=8.05x    frame=17921 fps=193 q=-0.0 size=N/A time=00:12:27.45 bitrate=N/A speed=8.05x    frame=18021 fps=193 q=-0.0 size=N/A time=00:12:31.62 bitrate=N/A speed=8.05x    frame=18118 fps=193 q=-0.0 size=N/A time=00:12:35.67 bitrate=N/A speed=8.05x    frame=18215 fps=193 q=-0.0 size=N/A time=00:12:39.71 bitrate=N/A speed=8.05x    frame=18312 fps=193 q=-0.0 size=N/A time=00:12:43.76 bitrate=N/A speed=8.05x    frame=18412 fps=193 q=-0.0 size=N/A time=00:12:47.93 bitrate=N/A speed=8.05x    frame=18514 fps=193 q=-0.0 size=N/A time=00:12:52.18 bitrate=N/A speed=8.05x    frame=18609 fps=193 q=-0.0 size=N/A time=00:12:56.15 bitrate=N/A speed=8.05x    frame=18695 fps=193 q=-0.0 size=N/A time=00:12:59.73 bitrate=N/A speed=8.04x    frame=18794 fps=193 q=-0.0 size=N/A time=00:13:03.86 bitrate=N/A speed=8.04x    frame=18906 fps=193 q=-0.0 size=N/A time=00:13:08.53 bitrate=N/A speed=8.05x    frame=18997 fps=193 q=-0.0 size=N/A time=00:13:12.33 bitrate=N/A speed=8.04x    frame=19100 fps=193 q=-0.0 size=N/A time=00:13:16.62 bitrate=N/A speed=8.04x    frame=19199 fps=193 q=-0.0 size=N/A time=00:13:20.75 bitrate=N/A speed=8.04x    frame=19296 fps=193 q=-0.0 size=N/A time=00:13:24.80 bitrate=N/A speed=8.04x    frame=19395 fps=193 q=-0.0 size=N/A time=00:13:28.93 bitrate=N/A speed=8.04x    frame=19492 fps=193 q=-0.0 size=N/A time=00:13:32.97 bitrate=N/A speed=8.04x    frame=19587 fps=193 q=-0.0 size=N/A time=00:13:36.94 bitrate=N/A speed=8.04x    frame=19694 fps=193 q=-0.0 size=N/A time=00:13:41.40 bitrate=N/A speed=8.04x    frame=19783 fps=193 q=-0.0 size=N/A time=00:13:45.11 bitrate=N/A speed=8.04x    frame=19888 fps=193 q=-0.0 size=N/A time=00:13:49.49 bitrate=N/A speed=8.04x    frame=19995 fps=193 q=-0.0 size=N/A time=00:13:53.95 bitrate=N/A speed=8.04x    frame=20087 fps=193 q=-0.0 size=N/A time=00:13:57.79 bitrate=N/A speed=8.04x    frame=20186 fps=193 q=-0.0 size=N/A time=00:14:01.92 bitrate=N/A speed=8.04x    frame=20296 fps=193 q=-0.0 size=N/A time=00:14:06.51 bitrate=N/A speed=8.05x    frame=20398 fps=193 q=-0.0 size=N/A time=00:14:10.76 bitrate=N/A speed=8.05x    frame=20498 fps=193 q=-0.0 size=N/A time=00:14:14.93 bitrate=N/A speed=8.05x    frame=20602 fps=193 q=-0.0 size=N/A time=00:14:19.27 bitrate=N/A speed=8.05x    frame=20700 fps=193 q=-0.0 size=N/A time=00:14:23.36 bitrate=N/A speed=8.05x    frame=20787 fps=193 q=-0.0 size=N/A time=00:14:26.99 bitrate=N/A speed=8.04x    frame=20900 fps=193 q=-0.0 size=N/A time=00:14:31.70 bitrate=N/A speed=8.05x    frame=21001 fps=193 q=-0.0 size=N/A time=00:14:35.91 bitrate=N/A speed=8.05x    frame=21096 fps=193 q=-0.0 size=N/A time=00:14:39.87 bitrate=N/A speed=8.05x    frame=21203 fps=193 q=-0.0 size=N/A time=00:14:44.34 bitrate=N/A speed=8.05x    frame=21304 fps=193 q=-0.0 size=N/A time=00:14:48.55 bitrate=N/A speed=8.05x    frame=21403 fps=193 q=-0.0 size=N/A time=00:14:52.68 bitrate=N/A speed=8.05x    frame=21499 fps=193 q=-0.0 size=N/A time=00:14:56.68 bitrate=N/A speed=8.05x    frame=21600 fps=193 q=-0.0 size=N/A time=00:15:00.90 bitrate=N/A speed=8.05x    frame=21699 fps=193 q=-0.0 size=N/A time=00:15:05.02 bitrate=N/A speed=8.05x    frame=21791 fps=193 q=-0.0 size=N/A time=00:15:08.86 bitrate=N/A speed=8.05x    frame=21898 fps=193 q=-0.0 size=N/A time=00:15:13.32 bitrate=N/A speed=8.05x    frame=22002 fps=193 q=-0.0 size=N/A time=00:15:17.66 bitrate=N/A speed=8.05x    frame=22101 fps=193 q=-0.0 size=N/A time=00:15:21.79 bitrate=N/A speed=8.05x    frame=22205 fps=193 q=-0.0 size=N/A time=00:15:26.13 bitrate=N/A speed=8.05x    frame=22306 fps=193 q=-0.0 size=N/A time=00:15:30.34 bitrate=N/A speed=8.05x    frame=22409 fps=193 q=-0.0 size=N/A time=00:15:34.64 bitrate=N/A speed=8.05x    frame=22497 fps=193 q=-0.0 size=N/A time=00:15:38.31 bitrate=N/A speed=8.05x    frame=22610 fps=193 q=-0.0 size=N/A time=00:15:43.02 bitrate=N/A speed=8.05x    frame=22708 fps=193 q=-0.0 size=N/A time=00:15:47.11 bitrate=N/A speed=8.05x    frame=22811 fps=193 q=-0.0 size=N/A time=00:15:51.40 bitrate=N/A speed=8.05x    frame=22901 fps=193 q=-0.0 size=N/A time=00:15:55.16 bitrate=N/A speed=8.05x    frame=23009 fps=193 q=-0.0 size=N/A time=00:15:59.66 bitrate=N/A speed=8.05x    frame=23110 fps=193 q=-0.0 size=N/A time=00:16:03.87 bitrate=N/A speed=8.06x    frame=23209 fps=193 q=-0.0 size=N/A time=00:16:08.00 bitrate=N/A speed=8.06x    frame=23312 fps=193 q=-0.0 size=N/A time=00:16:12.30 bitrate=N/A speed=8.06x    frame=23411 fps=193 q=-0.0 size=N/A time=00:16:16.43 bitrate=N/A speed=8.06x    frame=23508 fps=193 q=-0.0 size=N/A time=00:16:20.47 bitrate=N/A speed=8.06x    frame=23600 fps=193 q=-0.0 size=N/A time=00:16:24.31 bitrate=N/A speed=8.05x    frame=23690 fps=193 q=-0.0 size=N/A time=00:16:28.07 bitrate=N/A speed=8.05x    frame=23799 fps=193 q=-0.0 size=N/A time=00:16:32.61 bitrate=N/A speed=8.05x    frame=23897 fps=193 q=-0.0 size=N/A time=00:16:36.70 bitrate=N/A speed=8.05x    frame=23993 fps=193 q=-0.0 size=N/A time=00:16:40.70 bitrate=N/A speed=8.05x    frame=24100 fps=193 q=-0.0 size=N/A time=00:16:45.17 bitrate=N/A speed=8.05x    frame=24199 fps=193 q=-0.0 size=N/A time=00:16:49.29 bitrate=N/A speed=8.05x    frame=24294 fps=193 q=-0.0 size=N/A time=00:16:53.26 bitrate=N/A speed=8.05x    frame=24394 fps=193 q=-0.0 size=N/A time=00:16:57.43 bitrate=N/A speed=8.05x    frame=24494 fps=193 q=-0.0 size=N/A time=00:17:01.60 bitrate=N/A speed=8.05x    frame=24591 fps=193 q=-0.0 size=N/A time=00:17:05.64 bitrate=N/A speed=8.05x    frame=24689 fps=193 q=-0.0 size=N/A time=00:17:09.73 bitrate=N/A speed=8.05x    frame=24779 fps=193 q=-0.0 size=N/A time=00:17:13.49 bitrate=N/A speed=8.05x    frame=24881 fps=193 q=-0.0 size=N/A time=00:17:17.74 bitrate=N/A speed=8.05x    frame=24980 fps=193 q=-0.0 size=N/A time=00:17:21.87 bitrate=N/A speed=8.05x    frame=25082 fps=193 q=-0.0 size=N/A time=00:17:26.12 bitrate=N/A speed=8.05x    frame=25170 fps=193 q=-0.0 size=N/A time=00:17:29.79 bitrate=N/A speed=8.04x    frame=25284 fps=193 q=-0.0 size=N/A time=00:17:34.55 bitrate=N/A speed=8.05x    frame=25381 fps=193 q=-0.0 size=N/A time=00:17:38.59 bitrate=N/A speed=8.05x    frame=25478 fps=193 q=-0.0 size=N/A time=00:17:42.64 bitrate=N/A speed=8.05x    frame=25576 fps=193 q=-0.0 size=N/A time=00:17:46.73 bitrate=N/A speed=8.05x    frame=25685 fps=193 q=-0.0 size=N/A time=00:17:51.27 bitrate=N/A speed=8.05x    frame=25785 fps=193 q=-0.0 size=N/A time=00:17:55.44 bitrate=N/A speed=8.05x    frame=25886 fps=193 q=-0.0 size=N/A time=00:17:59.66 bitrate=N/A speed=8.05x    frame=25985 fps=193 q=-0.0 size=N/A time=00:18:03.79 bitrate=N/A speed=8.05x    frame=26082 fps=193 q=-0.0 size=N/A time=00:18:07.83 bitrate=N/A speed=8.05x    frame=26180 fps=193 q=-0.0 size=N/A time=00:18:11.92 bitrate=N/A speed=8.05x    frame=26284 fps=193 q=-0.0 size=N/A time=00:18:16.26 bitrate=N/A speed=8.05x    frame=26380 fps=193 q=-0.0 size=N/A time=00:18:20.26 bitrate=N/A speed=8.05x    frame=26479 fps=193 q=-0.0 size=N/A time=00:18:24.39 bitrate=N/A speed=8.05x    frame=26587 fps=193 q=-0.0 size=N/A time=00:18:28.89 bitrate=N/A speed=8.05x    frame=26691 fps=193 q=-0.0 size=N/A time=00:18:33.23 bitrate=N/A speed=8.05x    frame=26790 fps=193 q=-0.0 size=N/A time=00:18:37.36 bitrate=N/A speed=8.05x    frame=26885 fps=193 q=-0.0 size=N/A time=00:18:41.32 bitrate=N/A speed=8.05x    frame=26975 fps=193 q=-0.0 size=N/A time=00:18:45.08 bitrate=N/A speed=8.05x    frame=27089 fps=193 q=-0.0 size=N/A time=00:18:49.83 bitrate=N/A speed=8.05x    frame=27196 fps=193 q=-0.0 size=N/A time=00:18:54.29 bitrate=N/A speed=8.05x    frame=27296 fps=193 q=-0.0 size=N/A time=00:18:58.47 bitrate=N/A speed=8.05x    frame=27395 fps=193 q=-0.0 size=N/A time=00:19:02.59 bitrate=N/A speed=8.05x    frame=27494 fps=193 q=-0.0 size=N/A time=00:19:06.72 bitrate=N/A speed=8.05x    frame=27595 fps=193 q=-0.0 size=N/A time=00:19:10.94 bitrate=N/A speed=8.05x    frame=27690 fps=193 q=-0.0 size=N/A time=00:19:14.90 bitrate=N/A speed=8.05x    frame=27796 fps=193 q=-0.0 size=N/A time=00:19:19.32 bitrate=N/A speed=8.06x    frame=27896 fps=193 q=-0.0 size=N/A time=00:19:23.49 bitrate=N/A speed=8.05x    frame=27997 fps=193 q=-0.0 size=N/A time=00:19:27.70 bitrate=N/A speed=8.06x    frame=28094 fps=193 q=-0.0 size=N/A time=00:19:31.75 bitrate=N/A speed=8.05x    frame=28193 fps=193 q=-0.0 size=N/A time=00:19:35.88 bitrate=N/A speed=8.05x    frame=28303 fps=193 q=-0.0 size=N/A time=00:19:40.47 bitrate=N/A speed=8.06x    frame=28403 fps=193 q=-0.0 size=N/A time=00:19:44.64 bitrate=N/A speed=8.06x    frame=28505 fps=193 q=-0.0 size=N/A time=00:19:48.89 bitrate=N/A speed=8.06x    frame=28604 fps=193 q=-0.0 size=N/A time=00:19:53.02 bitrate=N/A speed=8.06x    frame=28705 fps=193 q=-0.0 size=N/A time=00:19:57.23 bitrate=N/A speed=8.06x    frame=28804 fps=193 q=-0.0 size=N/A time=00:20:01.36 bitrate=N/A speed=8.06x    frame=28902 fps=193 q=-0.0 size=N/A time=00:20:05.45 bitrate=N/A speed=8.06x    frame=29007 fps=193 q=-0.0 size=N/A time=00:20:09.83 bitrate=N/A speed=8.06x    frame=29105 fps=193 q=-0.0 size=N/A time=00:20:13.92 bitrate=N/A speed=8.06x    frame=29209 fps=193 q=-0.0 size=N/A time=00:20:18.25 bitrate=N/A speed=8.06x    frame=29310 fps=193 q=-0.0 size=N/A time=00:20:22.47 bitrate=N/A speed=8.06x    frame=29409 fps=193 q=-0.0 size=N/A time=00:20:26.60 bitrate=N/A speed=8.06x    frame=29510 fps=193 q=-0.0 size=N/A time=00:20:30.81 bitrate=N/A speed=8.06x    frame=29612 fps=193 q=-0.0 size=N/A time=00:20:35.06 bitrate=N/A speed=8.06x    frame=29709 fps=193 q=-0.0 size=N/A time=00:20:39.11 bitrate=N/A speed=8.06x    frame=29811 fps=193 q=-0.0 size=N/A time=00:20:43.36 bitrate=N/A speed=8.06x    frame=29910 fps=193 q=-0.0 size=N/A time=00:20:47.49 bitrate=N/A speed=8.06x    frame=30013 fps=193 q=-0.0 size=N/A time=00:20:51.79 bitrate=N/A speed=8.06x    frame=30113 fps=193 q=-0.0 size=N/A time=00:20:55.96 bitrate=N/A speed=8.06x    frame=30212 fps=193 q=-0.0 size=N/A time=00:21:00.09 bitrate=N/A speed=8.06x    frame=30318 fps=193 q=-0.0 size=N/A time=00:21:04.51 bitrate=N/A speed=8.06x    frame=30419 fps=193 q=-0.0 size=N/A time=00:21:08.72 bitrate=N/A speed=8.06x    frame=30523 fps=193 q=-0.0 size=N/A time=00:21:13.06 bitrate=N/A speed=8.06x    frame=30622 fps=193 q=-0.0 size=N/A time=00:21:17.19 bitrate=N/A speed=8.07x    frame=30722 fps=193 q=-0.0 size=N/A time=00:21:21.36 bitrate=N/A speed=8.06x    frame=30821 fps=193 q=-0.0 size=N/A time=00:21:25.49 bitrate=N/A speed=8.07x    frame=30924 fps=193 q=-0.0 size=N/A time=00:21:29.78 bitrate=N/A speed=8.07x    frame=31023 fps=193 q=-0.0 size=N/A time=00:21:33.91 bitrate=N/A speed=8.07x    frame=31123 fps=193 q=-0.0 size=N/A time=00:21:38.08 bitrate=N/A speed=8.07x    frame=31224 fps=193 q=-0.0 size=N/A time=00:21:42.30 bitrate=N/A speed=8.07x    frame=31321 fps=193 q=-0.0 size=N/A time=00:21:46.34 bitrate=N/A speed=8.07x    frame=31426 fps=193 q=-0.0 size=N/A time=00:21:50.72 bitrate=N/A speed=8.07x    frame=31529 fps=193 q=-0.0 size=N/A time=00:21:55.02 bitrate=N/A speed=8.07x    frame=31627 fps=193 q=-0.0 size=N/A time=00:21:59.10 bitrate=N/A speed=8.07x    frame=31726 fps=193 q=-0.0 size=N/A time=00:22:03.23 bitrate=N/A speed=8.07x    frame=31833 fps=193 q=-0.0 size=N/A time=00:22:07.70 bitrate=N/A speed=8.07x    frame=31933 fps=193 q=-0.0 size=N/A time=00:22:11.87 bitrate=N/A speed=8.07x    frame=32031 fps=193 q=-0.0 size=N/A time=00:22:15.95 bitrate=N/A speed=8.07x    frame=32126 fps=193 q=-0.0 size=N/A time=00:22:19.92 bitrate=N/A speed=8.07x    frame=32222 fps=193 q=-0.0 size=N/A time=00:22:23.92 bitrate=N/A speed=8.07x    frame=32317 fps=193 q=-0.0 size=N/A time=00:22:27.88 bitrate=N/A speed=8.06x    frame=32413 fps=193 q=-0.0 size=N/A time=00:22:31.89 bitrate=N/A speed=8.06x    frame=32508 fps=193 q=-0.0 size=N/A time=00:22:35.85 bitrate=N/A speed=8.06x    frame=32604 fps=193 q=-0.0 size=N/A time=00:22:39.85 bitrate=N/A speed=8.06x    frame=32701 fps=193 q=-0.0 size=N/A time=00:22:43.90 bitrate=N/A speed=8.06x    frame=32802 fps=193 q=-0.0 size=N/A time=00:22:48.11 bitrate=N/A speed=8.06x    frame=32898 fps=193 q=-0.0 size=N/A time=00:22:52.12 bitrate=N/A speed=8.06x    frame=32998 fps=193 q=-0.0 size=N/A time=00:22:56.29 bitrate=N/A speed=8.06x    frame=33094 fps=193 q=-0.0 size=N/A time=00:23:00.29 bitrate=N/A speed=8.06x    frame=33192 fps=193 q=-0.0 size=N/A time=00:23:04.38 bitrate=N/A speed=8.06x    frame=33288 fps=193 q=-0.0 size=N/A time=00:23:08.38 bitrate=N/A speed=8.06x    frame=33389 fps=193 q=-0.0 size=N/A time=00:23:12.59 bitrate=N/A speed=8.06x    frame=33481 fps=193 q=-0.0 size=N/A time=00:23:16.43 bitrate=N/A speed=8.06x    frame=33578 fps=193 q=-0.0 size=N/A time=00:23:20.48 bitrate=N/A speed=8.06x    frame=33677 fps=193 q=-0.0 size=N/A time=00:23:24.61 bitrate=N/A speed=8.06x    frame=33780 fps=193 q=-0.0 size=N/A time=00:23:28.90 bitrate=N/A speed=8.06x    frame=33879 fps=193 q=-0.0 size=N/A time=00:23:33.03 bitrate=N/A speed=8.06x    frame=33984 fps=193 q=-0.0 size=N/A time=00:23:37.41 bitrate=N/A speed=8.06x    [Parsed_ssim_10 @ 00000173581eafc0] SSIM Y:0.990981 (20.448315) U:0.992161 (21.057359) V:0.992736 (21.388189) All:0.991470 (20.690511)
[out#0/null @ 000001734c86b580] video:14631KiB audio:266624KiB subtitle:0KiB other streams:0KiB global headers:0KiB muxing overhead: unknown
frame=34050 fps=193 q=-0.0 Lsize=N/A time=00:23:40.16 bitrate=N/A speed=8.06x    
